<svg xmlns="http://www.w3.org/2000/svg" version="1.1" xmlns:xlink="http://www.w3.org/1999/xlink" xmlns:svgjs="http://svgjs.dev/svgjs" width="1500" height="1500" viewBox="0 0 1500 1500"><rect width="1500" height="1500" fill="#000000"></rect><g transform="matrix(0.6666666666666666,0,0,0.6666666666666666,248.44244080996884,189.33333333333348)"><svg viewBox="0 0 321 360" data-background-color="#ffffff" preserveAspectRatio="xMidYMid meet" height="1682" width="1500" xmlns="http://www.w3.org/2000/svg" xmlns:xlink="http://www.w3.org/1999/xlink"><g id="tight-bounds" transform="matrix(1,0,0,1,0.5000234999999975,0)"><svg viewBox="0 0 320 360" height="360" width="320"><g><svg></svg></g><g><svg viewBox="0 0 320 360" height="360" width="320"><g><path transform="translate(-74.99272,-51.79039) scale(4.65793,4.65793)" d="M20.6 59.9l0.8 1-0.4-1.3c-0.1-0.6-0.8 0.1-0.4 0.3M21.5 59.3c0.3 0.5 0.6 1 0.6 1.5 0 0.7 0.6 1 1.1 1.2-0.7-0.8-1.1-3-1.7-2.7M59.9 16.9c1.7 0 3.3-0.2 5.1 0.2 4.4 1.1 8.1 3.3 10.6 6.4l7 11.2c0.3 2.8 0.9 5.9 0.8 9.3 0.7 0 0.6-1 1.4-1.2-0.8 2-1.2 4.5-1.4 7.4-0.5-1.6 0-4 0.1-5.3-0.7 1.1-1.1 0.3-1.1-0.2 0.1-0.8-0.3-0.7-0.6-1-1.1-1-1.8-2.1-2.6-3.8 0.5-1.3 0.6-3.2-1-4.2-0.5-0.3-1.1-0.8-1.4-1.6-0.4-1.1-1.1-2.4-0.9-4.1 0.1-0.5-1.5 1.1-2.4 0.4-3.9-2.7-7.8-5.8-12.5-8.4-2.5 0-4.3-0.9-5.2-2-0.8-1-0.2-2.3 1-2.4 0.7 0 1.5-0.2 2.1 0.2 0.1-0.4 0.5-0.9 1-0.9M50 14.6l0.2 0.1c1 0.2 1.5 1.6 2.6 1.1 0 0.7 0.1 1.4-0.1 1.9-0.3 0.8-1.2 0.8-1.9 0.8-6.7-0.4-10.6 2.4-14.7 4.8-1.1 0.7-2.3 1.2-3.2 2.1-4.3 4-9 7.7-10.1 15.1l-0.9 8.2c-0.1 0.9-1.1 1.8-0.9 2.9l0.7 4.9c-0.7-0.7-1.1 0.2-0.9 0.6 0.1 0.3 0.5 1.3 1.1 0.4 0.8 1.5 1.6 4.4 2.7 5.7 3.4 4 7.8 7.6 11.4 11.2 0.9-0.2 1.6-0.2 1.8-0.8 0.3 0.6-0.3 1.2-0.8 1.3 1.6 1 3.4 1.9 5.8 2.1 3.1 0.2 6 0.7 8.7 1.4 1.4-0.4 2.8-0.6 4.3-0.7 0.5 0 0.8-0.8 1.4-1l0.1-1c0.6 0.9 0.5-0.3 0.1-0.9 0.7 0.6 0.9 1.1 1.2 1.5 0-0.3 0.8-1.4 0.8-0.1l0.2-1.3c0.3-0.2 0.4 1.1 0.7 0.2 0.3-0.9 0.9-0.2 1.5-0.5-0.2 0.4-0.1 1.2 0.6 0.7l0.8-0.7c0.5 1.2 1.3 0.7 1.7 0.5 4.4-2.8 8.8-6.1 13-9.4l-0.1 1.3 0.5-1.6c0.5 0.5 0.9 0.1 1.1-0.2 0.6-1 1.4-2 2.7-2.9-1.6 4.3-3.5 7.7-5.9 10.5l-1 1.2c0 0.7-0.2 1.6-1 1.7-0.4 0.1-1.2-0.2-1.8 0.4-0.3 0.4 0.7 1.2-0.1 0.6-0.7-0.5-1.4 0-2.2 0.2-0.6 0.2 0.4 0.8 0.6 1.2 0.2 0.4 0.4 0.8 0.3 1.3l-1.1-1.2c-1.3 0.7-2.1 2-3.2 3-0.5 0.4-0.3 1.1-0.3 1.7-0.7 0-1.5-0.2-1.9 0.2-0.3 0.4-0.2 1-0.2 1.6-1-0.1-1.1-1.6-2-1.3-0.9 0.2-1.9 0.3-2.7 0.8 0.6 1.2-1 0.5-0.8 0.7-1.5-0.9-2.8-1.6-4.4-1-3.4-1.1-7.6-0.6-10.7-0.2 0-0.5 0.1-1-0.1-1.1-0.2 0.5-0.8 0.3-0.7 0.3-1.9-1.3-3.8-2.1-5.8-3.2-1.8 0.2-3.5-0.7-4-1.2-1.4-1.3-3-0.6-4.3-0.9-2.8-0.7-3.8-3.6-4.1-5.6-0.2-1-1-1.4-1.3-1.3-1.3-4.2-3.3-8-4.9-11.9-0.4-1-0.3-2-0.3-3.1 0.5 0.2 1 0.1 0.9-0.6-0.5-3.3-1.7-5.8-3-8.2 0.7-3.4 0.8-7.4 2.4-10.4 1.4-2.7 4-4.1 5.8-6.4 0.6-0.8 0.6-1.9 1.2-2.6 2-2 4-4.1 6.2-5.9 1-0.8 2.2 0 3.7-0.3 0.5-1.8 2.5-3.4 4.4-2.9 0.8 0.2 2.4-1.9 2.9-2.1 0.8-0.3 0.4 0.8 0.4 1.5 1.9-1.5 4.5-2.3 6.9-3.2" fill="#ffffff" fill-rule="nonzero" stroke="none" stroke-width="1" stroke-linecap="butt" stroke-linejoin="miter" stroke-miterlimit="10" stroke-dasharray="" stroke-dashoffset="0" font-family="none" font-weight="none" font-size="none" text-anchor="none" style="mix-blend-mode: normal" data-fill-palette-color="tertiary"></path></g><g transform="matrix(1,0,0,1,64,104.40424802759577)"><svg viewBox="0 0 192 151.19150394480846" height="151.19150394480846" width="192"><g><svg viewBox="0 0 192 151.19150394480846" height="151.19150394480846" width="192"><g><svg viewBox="0 0 192 151.19150394480846" height="151.19150394480846" width="192"><g transform="matrix(1,0,0,1,0,90.56266568195021)"><svg viewBox="0 0 192 60.62883826285827" height="60.62883826285827" width="192"><g id="textblocktransform"><svg viewBox="0 0 192 60.62883826285827" height="60.62883826285827" width="192" id="textblock"><g><svg viewBox="0 0 192 46.41876046901172" height="46.41876046901172" width="192"><g transform="matrix(1,0,0,1,0,0)"><svg width="192" viewBox="2.15 -34.8 179.07999999999998 43.300000000000004" height="46.41876046901172" data-palette-color="#4a596d"><path d="M30.05 8.5L30.05 8.5Q28.35 8.5 26.43 7.53 24.5 6.55 22.6 4.75 20.7 2.95 18.95 0.45L18.95 0.45 23.4-1.55Q24.85-0.25 26.03 0.68 27.2 1.6 28.48 2.15 29.75 2.7 31.48 2.95 33.2 3.2 35.75 3.2L35.75 3.2Q36.15 3.2 36.33 3.4 36.5 3.6 36.5 4L36.5 4Q36.5 4.6 35.88 5.38 35.25 6.15 34.25 6.88 33.25 7.6 32.15 8.05 31.05 8.5 30.05 8.5ZM16.45 0.8L16.45 0.8Q12.15 0.8 8.93-0.88 5.7-2.55 3.93-5.9 2.15-9.25 2.15-14.15L2.15-14.15Q2.15-18.65 3.55-22.43 4.95-26.2 7.48-28.98 10-31.75 13.35-33.27 16.7-34.8 20.65-34.8L20.65-34.8Q27.4-34.8 31.18-31.03 34.95-27.25 34.95-19.9L34.95-19.9Q34.95-15.4 33.55-11.63 32.15-7.85 29.63-5.05 27.1-2.25 23.75-0.73 20.4 0.8 16.45 0.8ZM17.1-3.2L17.1-3.2Q19.2-3.2 21.2-4.33 23.2-5.45 24.8-7.55 26.4-9.65 27.35-12.53 28.3-15.4 28.3-18.9L28.3-18.9Q28.3-23 27.18-25.63 26.05-28.25 24.18-29.53 22.3-30.8 20-30.8L20-30.8Q16.95-30.8 14.4-28.83 11.85-26.85 10.33-23.3 8.8-19.75 8.8-15.1L8.8-15.1Q8.8-11.05 9.93-8.4 11.05-5.75 12.95-4.48 14.85-3.2 17.1-3.2ZM41.8 0.65L41.8 0.65Q39.85 0.65 38.77-0.43 37.7-1.5 37.7-3.65L37.7-3.65Q37.7-4.4 37.72-5.15 37.75-5.9 37.87-6.95 38-8 38.2-9.65L38.2-9.65 40.1-24.55 43.6-24.55Q44.45-24.55 44.72-23.58 45-22.6 45-21.2L45-21.2Q45-20.15 44.85-18.45 44.7-16.75 44.4-14.7L44.4-14.7 43.8-10.6Q43.6-9.2 43.52-8.1 43.45-7 43.45-6.3L43.45-6.3Q43.45-5.3 43.67-4.78 43.9-4.25 44.55-4.25L44.55-4.25Q45.3-4.25 46.45-5.35 47.6-6.45 48.87-8.25 50.15-10.05 51.25-12.13 52.35-14.2 53.05-16.15 53.75-18.1 53.75-19.5L53.75-19.5Q53.75-20.65 53.47-21.43 53.2-22.2 53.25-22.7L53.25-22.7Q53.25-23.15 53.82-23.5 54.4-23.85 55.2-24.08 56-24.3 56.8-24.43 57.6-24.55 58.05-24.55L58.05-24.55Q58.9-24.55 59.37-23.55 59.85-22.55 59.65-20.7L59.65-20.7 57.3 0.5 53.8 0.5Q53.2 0.5 52.85-0.13 52.5-0.75 52.37-1.55 52.25-2.35 52.25-2.75L52.25-2.75Q52.25-3.9 52.57-5.25 52.9-6.6 53.52-8.7 54.15-10.8 55.05-14.1L55.05-14.1 55.05-13.25Q53.1-8.15 50.75-5.1 48.4-2.05 46.1-0.7 43.8 0.65 41.8 0.65ZM68.7 0.8L65.2 0.8Q64.34 0.8 64.09-0.18 63.84-1.15 63.84-2.2L63.84-2.2Q63.84-4 64.02-5.4 64.2-6.8 64.39-8.5L64.39-8.5 66.2-24.55 69.7-24.55Q70.7-24.55 71-23.45 71.3-22.35 71.3-20.95L71.3-20.95Q71.3-20.25 71.2-19.48 71.09-18.7 70.89-17.1L70.89-17.1 69.95-8.95Q69.64-6.35 69.39-4.6 69.14-2.85 69-1.6 68.84-0.35 68.7 0.8L68.7 0.8ZM69.59-27.4L69.59-27.4Q68.2-27.4 67.17-28.35 66.14-29.3 66.14-30.85L66.14-30.85Q66.14-32.7 67.34-33.73 68.55-34.75 70.09-34.75L70.09-34.75Q71.55-34.75 72.52-33.9 73.5-33.05 73.5-31.35L73.5-31.35Q73.5-29.65 72.34-28.53 71.2-27.4 69.59-27.4ZM80.94 0.7L77.44 0.7Q76.54 0.7 76.04-0.4 75.54-1.5 75.59-2.95L75.59-2.95Q75.64-4.65 75.89-7 76.14-9.35 76.39-11.65L76.39-11.65 77.79-23.45Q78.09-25.7 77.94-27.45 77.79-29.2 77.54-30.55 77.29-31.9 77.29-32.85L77.29-32.85Q77.29-33.4 78.17-33.83 79.04-34.25 80.19-34.52 81.34-34.8 82.14-34.8L82.14-34.8Q82.99-34.8 83.64-33.58 84.29-32.35 84.29-30.75L84.29-30.75Q84.29-30.4 84.19-28.8 84.09-27.2 83.79-25.15L83.79-25.15 82.19-13.65Q81.69-10.05 81.49-6.48 81.29-2.9 80.94 0.7L80.94 0.7ZM93.19 0.7L89.69 0.7Q88.79 0.7 88.29-0.4 87.79-1.5 87.84-2.95L87.84-2.95Q87.89-4.65 88.14-7 88.39-9.35 88.64-11.65L88.64-11.65 90.04-23.45Q90.34-25.7 90.19-27.45 90.04-29.2 89.79-30.55 89.54-31.9 89.54-32.85L89.54-32.85Q89.54-33.4 90.42-33.83 91.29-34.25 92.44-34.52 93.59-34.8 94.39-34.8L94.39-34.8Q95.24-34.8 95.89-33.58 96.54-32.35 96.54-30.75L96.54-30.75Q96.54-30.4 96.44-28.8 96.34-27.2 96.04-25.15L96.04-25.15 94.44-13.65Q93.94-10.05 93.74-6.48 93.54-2.9 93.19 0.7L93.19 0.7ZM101.89 0.4L101.89 0.4Q100.99 0.4 100.64-0.4 100.29-1.2 100.29-2.55L100.29-2.55Q100.29-3.55 100.44-4.8L100.44-4.8 103.64-34Q105.54-34.2 107.66-34.35 109.79-34.5 112.24-34.5L112.24-34.5Q116.79-34.5 119.54-33.68 122.29-32.85 123.54-31.15 124.79-29.45 124.79-26.9L124.79-26.9Q124.79-23.95 123.06-21.8 121.34-19.65 118.54-18.25L118.54-18.25 116.89-17.4Q115.54-16.75 114.49-16.32 113.44-15.9 112.54-15.9L112.54-15.9Q111.59-15.9 110.59-16.53 109.59-17.15 109.59-17.7L109.59-17.7Q109.59-18.15 109.81-18.32 110.04-18.5 110.44-18.6L110.44-18.6Q112.24-19.05 114.11-19.98 115.99-20.9 117.26-22.4 118.54-23.9 118.54-26.15L118.54-26.15Q118.54-28.65 116.34-29.7 114.14-30.75 109.19-30.75L109.19-30.75 106.84-7.95Q106.79-7.45 106.76-6.98 106.74-6.5 106.74-6L106.74-6Q106.74-5.45 106.79-4.88 106.84-4.3 106.89-3.75L106.89-3.75Q112.84-3.75 115.89-5.58 118.94-7.4 118.94-11.1L118.94-11.1Q118.94-13.4 117.71-15.1 116.49-16.8 114.44-17.45L114.44-17.45 117.89-19.25Q120.34-18.65 122.06-17.43 123.79-16.2 124.69-14.55 125.59-12.9 125.59-10.85L125.59-10.85Q125.59-7.7 124.01-5.25 122.44-2.8 119.29-1.4 116.14 0 111.49 0L111.49 0Q110.49 0 109.04 0.05 107.59 0.1 106.11 0.2 104.64 0.3 103.46 0.35 102.29 0.4 101.89 0.4ZM134.09-1.2L134.09-1.2 132.89-8.75Q134.74-13.55 136.66-17.07 138.59-20.6 140.59-22.55 142.59-24.5 144.64-24.5L144.64-24.5Q145.79-24.5 146.29-23.78 146.79-23.05 146.79-21.95L146.79-21.95Q146.79-20.95 146.56-20.03 146.34-19.1 145.91-18.5 145.49-17.9 144.89-17.9L144.89-17.9Q144.34-17.9 143.66-18.25 142.99-18.6 141.84-18.6L141.84-18.6Q141.09-18.6 139.94-17.05 138.79-15.5 137.56-12.93 136.34-10.35 135.39-7.28 134.44-4.2 134.09-1.2ZM129.89 0.7L129.89 0.7Q129.24 0.7 128.91 0.48 128.59 0.25 128.56-0.7 128.54-1.65 128.79-3.75L128.79-3.75 131.14-24.55 134.64-24.55Q135.39-24.55 135.99-23.45 136.59-22.35 136.59-20.95L136.59-20.95Q136.59-20.3 136.21-18.93 135.84-17.55 135.34-16.03 134.84-14.5 134.44-13.35L134.44-13.35 133.14-9.25 134.99-9.55 134.09-1.2Q134.04-0.7 133.49-0.33 132.94 0.05 132.21 0.28 131.49 0.5 130.84 0.6 130.19 0.7 129.89 0.7ZM152.93 0.8L149.43 0.8Q148.58 0.8 148.33-0.18 148.08-1.15 148.08-2.2L148.08-2.2Q148.08-4 148.26-5.4 148.43-6.8 148.63-8.5L148.63-8.5 150.43-24.55 153.93-24.55Q154.93-24.55 155.23-23.45 155.53-22.35 155.53-20.95L155.53-20.95Q155.53-20.25 155.43-19.48 155.33-18.7 155.13-17.1L155.13-17.1 154.18-8.95Q153.88-6.35 153.63-4.6 153.38-2.85 153.23-1.6 153.08-0.35 152.93 0.8L152.93 0.8ZM153.83-27.4L153.83-27.4Q152.43-27.4 151.41-28.35 150.38-29.3 150.38-30.85L150.38-30.85Q150.38-32.7 151.58-33.73 152.78-34.75 154.33-34.75L154.33-34.75Q155.78-34.75 156.76-33.9 157.73-33.05 157.73-31.35L157.73-31.35Q157.73-29.65 156.58-28.53 155.43-27.4 153.83-27.4ZM160.23 0.75L160.23 0.75Q159.18 0.75 158.53 0.28 157.88-0.2 157.61-1.05 157.33-1.9 157.33-2.9L157.33-2.9Q157.33-3.8 157.68-4.1 158.03-4.4 158.43-4.4L158.43-4.4Q159.93-4.4 161.33-5.15 162.73-5.9 164.11-7.55 165.48-9.2 166.78-11.85L166.78-11.85 169.48-15.45Q171.48-19.2 173.23-21.15 174.98-23.1 176.48-23.8 177.98-24.5 179.18-24.5L179.18-24.5Q180.13-24.5 180.68-23.9 181.23-23.3 181.23-22.15L181.23-22.15Q181.23-21.3 181.06-20.5 180.88-19.7 180.53-19.2 180.18-18.7 179.73-18.7L179.73-18.7Q179.23-18.7 178.66-18.9 178.08-19.1 177.38-19.1L177.38-19.1Q176.28-19.1 174.76-17.32 173.23-15.55 171.73-12.7L171.73-12.7 168.53-8.6Q167.28-5.6 165.88-3.5 164.48-1.4 163.06-0.33 161.63 0.75 160.23 0.75ZM174.93 0.6L174.93 0.6Q173.93 0.6 172.66-0.95 171.38-2.5 169.48-6.3L169.48-6.3 167.53-10.25 167.18-10.6 165.38-13.75Q164.28-15.75 163.36-17.05 162.43-18.35 161.73-19.2 161.03-20.05 160.48-20.6L160.48-20.6Q159.98-21.15 159.61-21.53 159.23-21.9 159.23-22.4L159.23-22.4Q159.23-22.85 160.11-23.35 160.98-23.85 162.16-24.2 163.33-24.55 164.13-24.55L164.13-24.55Q164.83-24.55 165.33-24.13 165.83-23.7 166.53-22.53 167.23-21.35 168.48-19.05L168.48-19.05 170.38-15.55 171.13-14.3 172.78-11.3Q174.13-8.85 175.16-7.33 176.18-5.8 176.93-4.93 177.68-4.05 178.18-3.5L178.18-3.5Q178.83-2.8 179.33-2.45 179.83-2.1 179.83-1.7L179.83-1.7Q179.83-1.25 179.31-0.83 178.78-0.4 177.98-0.1 177.18 0.2 176.36 0.4 175.53 0.6 174.93 0.6Z" opacity="1" transform="matrix(1,0,0,1,0,0)" fill="#ffffff" class="wordmark-text-0" data-fill-palette-color="primary" id="text-0"></path></svg></g></svg></g><g transform="matrix(1,0,0,1,0,53.19237167169179)"><svg viewBox="0 0 192 7.436466591166479" height="7.436466591166479" width="192"><g transform="matrix(1,0,0,1,0,0)"><svg width="192" viewBox="1.65 -25.2 662.1700000000001 25.65" height="7.436466591166479" data-palette-color="#aab7c0"><path d="M37.45-24.9L28.15 0 24.15 0 19.25-13.6 18.95-13.6 13.8 0 9.8 0 1.65-24.9 5.4-24.9 5.85-22.25 11.95-4.15 12.2-4.15 17.65-18.7 15.6-24.9 19.5-24.9 20.05-21.95 26.15-4.15 26.45-4.15 33.2-22.05 33.8-24.9 37.45-24.9ZM51.45-3L58.1-3.2 58.4-2.9 58.05 0 42.9 0 43.05-7.5 42.9-24.9 58.15-24.9 58.4-24.6 58.1-21.7 51.8-21.9 46.6-21.85 46.55-14.3 51.5-14.25 55.85-14.4 56.1-14.05 55.8-11.1 51.2-11.25 46.55-11.2 46.5-7.8 46.55-3.05 51.45-3ZM66.05-24.9L66.35-24.55 65.15-15.4 63.1-15.1 62.75-15.45 63-24.65 66.05-24.9ZM84.39-10.05Q87.44-5.4 91.14-0.9L91.14-0.9 91.09-0.4Q88.99 0.25 87.64 0.35L87.64 0.35 86.99-0.05Q83.19-5.8 81.24-9.1L81.24-9.1 76.54-9.05 76.54-7.8 76.64 0 72.94 0 73.09-7.5 72.94-24.9 81.44-24.95Q85.39-24.95 87.52-23.1 89.64-21.25 89.64-17.75L89.64-17.75Q89.64-15.2 88.27-13.2 86.89-11.2 84.39-10.05L84.39-10.05ZM76.64-21.9L76.59-12.15 81.29-12Q85.74-13.25 85.74-17.45L85.74-17.45Q85.74-19.65 84.44-20.75 83.14-21.85 80.49-21.95L80.49-21.95 76.64-21.9ZM106.29-3L112.94-3.2 113.24-2.9 112.89 0 97.74 0 97.89-7.5 97.74-24.9 112.99-24.9 113.24-24.6 112.94-21.7 106.64-21.9 101.44-21.85 101.39-14.3 106.34-14.25 110.69-14.4 110.94-14.05 110.64-11.1 106.04-11.25 101.39-11.2 101.34-7.8 101.39-3.05 106.29-3ZM151.69-24.9L154.24 0 150.89 0 150.34-7.6 148.99-19.1 148.69-19.1 141.54-2.8 138.59-2.8 131.84-19.1 131.54-19.1 130.24-7.9 129.54 0 126.34 0 129.09-24.9 133.44-24.9 134.69-21.15 140.14-7.75 140.44-7.75 146.14-21.35 147.44-24.9 151.69-24.9ZM172.53-24.9L181.28 0 177.53 0 176.93-2.7 175.63-6.4 169.68-6.45 164.38-6.4 163.03-2.9 162.33 0 158.63 0 168.23-24.9 172.53-24.9ZM169.98-9.4L174.58-9.45 170.43-21.25 170.13-21.25 165.58-9.45 169.98-9.4ZM206.18-24.95L195.58-13.25Q200.88-6.75 206.83-0.85L206.83-0.85 206.73-0.3Q205.18 0.2 203.13 0.45L203.13 0.45 202.53 0.2Q196.13-7 191.48-13L191.48-13 191.48-13.3 200.08-22.7 201.73-24.9 206.18-24.95ZM191.23-24.9L191.08-7.8 191.18 0 187.48 0 187.63-7.5 187.48-24.9 191.23-24.9ZM215.73-24.9L215.58-7.8 215.68 0 211.98 0 212.13-7.5 211.98-24.9 215.73-24.9ZM245.73-25L245.58-7.45 245.63 0 241.63 0 228.53-19 228.28-19 228.23-8.3 228.33 0 224.93 0 225.08-7.35 224.98-24.9 228.93-24.9 242.03-5.9 242.38-5.9 242.28-24.75 245.73-25ZM256.12-24.9L256.42-24.55 255.22-15.4 253.17-15.1 252.82-15.45 253.07-24.65 256.12-24.9ZM304.22-24.9L294.92 0 290.92 0 286.02-13.6 285.72-13.6 280.57 0 276.57 0 268.42-24.9 272.17-24.9 272.62-22.25 278.72-4.15 278.97-4.15 284.42-18.7 282.37-24.9 286.27-24.9 286.82-21.95 292.92-4.15 293.22-4.15 299.97-22.05 300.57-24.9 304.22-24.9ZM330.52-24.9L330.37-7.8 330.47 0 326.77 0 326.92-7.5 326.87-10.9 313.31-10.85 313.27-7.8 313.37 0 309.67 0 309.81-7.5 309.67-24.9 313.42-24.9 313.31-14.2 320.06-14.15 326.87-14.2 326.77-24.9 330.52-24.9ZM350.11-24.9L358.86 0 355.11 0 354.51-2.7 353.21-6.4 347.26-6.45 341.96-6.4 340.61-2.9 339.91 0 336.21 0 345.81-24.9 350.11-24.9ZM347.56-9.4L352.16-9.45 348.01-21.25 347.71-21.25 343.16-9.45 347.56-9.4ZM377.86-24.9L378.06-24.6 377.81-21.45 373.16-21.8 370.66-21.8 370.51-7.8 370.66 0 366.91 0 367.06-7.5 366.96-21.8 364.46-21.8 359.71-21.45 359.41-21.8 359.71-24.9 377.86-24.9ZM401.11-8.7L401.06-7.15 401.21 0 397.46 0 397.66-7.15 397.61-8.7 389.16-24.9 393.26-24.9 393.76-23.45 399.36-12.75 399.61-12.75 405.71-23.3 406.36-24.9 410.36-24.9 401.11-8.7ZM424.15-25.2Q429.6-25.2 432.53-22 435.45-18.8 435.45-12.95L435.45-12.95Q435.45-6.6 432.33-3.13 429.2 0.35 423.4 0.35L423.4 0.35Q418 0.35 415.05-2.93 412.1-6.2 412.1-12.25L412.1-12.25Q412.1-18.45 415.25-21.83 418.4-25.2 424.15-25.2L424.15-25.2ZM423.8-22.05Q419.85-22.05 417.93-19.8 416-17.55 416-12.7L416-12.7Q416-7.5 417.9-5.15 419.8-2.8 423.7-2.8L423.7-2.8Q427.7-2.8 429.65-5.1 431.6-7.4 431.6-12.3L431.6-12.3Q431.6-17.35 429.68-19.7 427.75-22.05 423.8-22.05L423.8-22.05ZM461.5-24.9L461.35-12.25 461.35-8.65Q461.4-4.4 458.78-2.05 456.15 0.3 451.25 0.3L451.25 0.3Q446.4 0.3 443.85-2.02 441.3-4.35 441.4-8.65L441.4-8.65 441.45-12.45 441.4-24.9 445.15-24.9 444.95-9.25Q444.9-6.1 446.53-4.5 448.15-2.9 451.4-2.9L451.4-2.9Q454.6-2.9 456.25-4.5 457.9-6.1 457.85-9.25L457.85-9.25 457.7-24.9 461.5-24.9ZM471.05-24.9L471.35-24.55 470.15-15.4 468.1-15.1 467.75-15.45 468-24.65 471.05-24.9ZM489.4-10.05Q492.45-5.4 496.15-0.9L496.15-0.9 496.1-0.4Q494 0.25 492.65 0.35L492.65 0.35 492-0.05Q488.2-5.8 486.25-9.1L486.25-9.1 481.55-9.05 481.55-7.8 481.65 0 477.95 0 478.1-7.5 477.95-24.9 486.45-24.95Q490.4-24.95 492.52-23.1 494.65-21.25 494.65-17.75L494.65-17.75Q494.65-15.2 493.27-13.2 491.9-11.2 489.4-10.05L489.4-10.05ZM481.65-21.9L481.6-12.15 486.3-12Q490.75-13.25 490.75-17.45L490.75-17.45Q490.75-19.65 489.45-20.75 488.15-21.85 485.5-21.95L485.5-21.95 481.65-21.9ZM511.29-3L517.94-3.2 518.24-2.9 517.89 0 502.74 0 502.89-7.5 502.74-24.9 517.99-24.9 518.24-24.6 517.94-21.7 511.64-21.9 506.44-21.85 506.39-14.3 511.34-14.25 515.69-14.4 515.94-14.05 515.64-11.1 511.04-11.25 506.39-11.2 506.34-7.8 506.39-3.05 511.29-3ZM542.44-25.15Q546.59-25.15 549.64-23.4L549.64-23.4 548.94-19.95 548.49-19.8Q547.24-20.85 545.59-21.45 543.94-22.05 542.04-22.05L542.04-22.05Q538.34-22.05 536.39-19.68 534.44-17.3 534.44-12.6L534.44-12.6Q534.44-7.85 536.39-5.35 538.34-2.85 542.04-2.85L542.04-2.85Q543.84-2.85 545.66-3.48 547.49-4.1 548.94-5.15L548.94-5.15 549.39-5 549.04-1.55Q545.64 0.3 541.89 0.3L541.89 0.3Q536.39 0.3 533.44-2.98 530.49-6.25 530.49-12.3L530.49-12.3Q530.49-18.45 533.61-21.8 536.74-25.15 542.44-25.15L542.44-25.15ZM567.23-10.05Q570.28-5.4 573.98-0.9L573.98-0.9 573.93-0.4Q571.83 0.25 570.48 0.35L570.48 0.35 569.83-0.05Q566.03-5.8 564.08-9.1L564.08-9.1 559.38-9.05 559.38-7.8 559.48 0 555.78 0 555.93-7.5 555.78-24.9 564.28-24.95Q568.23-24.95 570.36-23.1 572.48-21.25 572.48-17.75L572.48-17.75Q572.48-15.2 571.11-13.2 569.73-11.2 567.23-10.05L567.23-10.05ZM559.48-21.9L559.43-12.15 564.13-12Q568.58-13.25 568.58-17.45L568.58-17.45Q568.58-19.65 567.28-20.75 565.98-21.85 563.33-21.95L563.33-21.95 559.48-21.9ZM591.23-24.9L599.98 0 596.23 0 595.63-2.7 594.33-6.4 588.38-6.45 583.08-6.4 581.73-2.9 581.03 0 577.33 0 586.93-24.9 591.23-24.9ZM588.68-9.4L593.28-9.45 589.13-21.25 588.83-21.25 584.28-9.45 588.68-9.4ZM624.58-24.9L615.08 0 610.63 0 601.93-24.9 605.78-24.9 606.38-22.15 612.83-3.7 613.08-3.7 620.23-22 620.83-24.9 624.58-24.9ZM633.83-24.9L633.68-7.8 633.78 0 630.08 0 630.23-7.5 630.08-24.9 633.83-24.9ZM663.82-25L663.67-7.45 663.72 0 659.72 0 646.62-19 646.37-19 646.32-8.3 646.42 0 643.02 0 643.17-7.35 643.07-24.9 647.02-24.9 660.12-5.9 660.47-5.9 660.37-24.75 663.82-25Z" opacity="1" transform="matrix(1,0,0,1,0,0)" fill="#ffffff" class="slogan-text-1" data-fill-palette-color="secondary" id="text-1"></path></svg></g></svg></g></svg></g></svg></g><g transform="matrix(1,0,0,1,47.32113270114966,0)"><svg viewBox="0 0 97.35773459770068 83.78905447927013" height="83.78905447927013" width="97.35773459770068"><g><svg xmlns="http://www.w3.org/2000/svg" xmlns:xlink="http://www.w3.org/1999/xlink" version="1.1" x="0" y="0" viewBox="0 13.813 100.144 86.187" enable-background="new 0 0 100 100" xml:space="preserve" id="icon-0" width="97.35773459770068" height="83.78905447927013" class="icon-icon-0" data-fill-palette-color="accent"><g fill="#4a596d" data-fill-palette-color="accent"><polygon points="0,77.814 22.185,100 77.854,100 100.144,77.711  " fill="#ffffff" data-fill-palette-color="accent"></polygon><path d="M62.554 56.12L61.421 70.47 60.271 55.857C57.625 55.595 54.799 55.447 51.827 55.4L50.739 69.187 49.65 55.379C46.328 55.391 43.212 55.547 40.287 55.822L39.132 70.47 37.998 56.074C8.799 59.564 0 75.092 0 75.092H100.144S91.429 59.707 62.554 56.12" fill="#ffffff" data-fill-palette-color="accent"></path></g><path d="M50.244 29.826C54.977 35.235 57.316 43.597 52.352 48.561 56.843 37.451 45.024 35.56 45.024 25.868 45.969 16.058 52.116 13.813 52.116 13.813S45.279 24.153 50.244 29.826" fill="#ffffff" data-fill-palette-color="accent"></path></svg></g></svg></g><g></g></svg></g></svg></g></svg></g></svg></g><defs></defs></svg><rect width="320" height="360" fill="none" stroke="none" visibility="hidden"></rect></g></svg></g></svg>